<svg width="24" height="24" viewBox="0 0 24 24" fill="none" xmlns="http://www.w3.org/2000/svg">
<g clip-path="url(#clip0_26_50)">
<mask id="path-1-inside-1_26_50" fill="white">
<path d="M21 12.5L4.90723 12.5L11.0537 18.6465L10.3467 19.3535L2.99316 12L10.3467 4.64648L11.0537 5.35352L4.90723 11.5L21 11.5V12.5Z"/>
</mask>
<path d="M21 12.5L4.90723 12.5L11.0537 18.6465L10.3467 19.3535L2.99316 12L10.3467 4.64648L11.0537 5.35352L4.90723 11.5L21 11.5V12.5Z" fill="#121314"/>
<path d="M21 12.5V13.5H22V12.5H21ZM4.90723 12.5V11.5H2.49301L4.20012 13.2071L4.90723 12.5ZM11.0537 18.6465L11.7608 19.3536L12.4679 18.6465L11.7608 17.9394L11.0537 18.6465ZM10.3467 19.3535L9.63957 20.0606L10.3467 20.7677L11.0538 20.0606L10.3467 19.3535ZM2.99316 12L2.28606 11.2929L1.57895 12L2.28606 12.7071L2.99316 12ZM10.3467 4.64648L11.0538 3.93938L10.3467 3.23227L9.63957 3.93938L10.3467 4.64648ZM11.0537 5.35352L11.7608 6.06062L12.4679 5.35352L11.7608 4.64641L11.0537 5.35352ZM4.90723 11.5L4.20012 10.7929L2.49301 12.5H4.90723V11.5ZM21 11.5H22L22 10.5H21L21 11.5ZM21 11.5L4.90723 11.5L4.90723 13.5L21 13.5V11.5ZM4.20012 13.2071L10.3466 19.3536L11.7608 17.9394L5.61433 11.7929L4.20012 13.2071ZM10.3466 17.9394L9.63957 18.6464L11.0538 20.0606L11.7608 19.3536L10.3466 17.9394ZM11.0538 18.6464L3.70027 11.2929L2.28606 12.7071L9.63957 20.0606L11.0538 18.6464ZM3.70027 12.7071L11.0538 5.35359L9.63957 3.93938L2.28606 11.2929L3.70027 12.7071ZM9.63957 5.35359L10.3466 6.06062L11.7608 4.64641L11.0538 3.93938L9.63957 5.35359ZM10.3466 4.64641L4.20012 10.7929L5.61433 12.2071L11.7608 6.06062L10.3466 4.64641ZM4.90723 12.5L21 12.5L21 10.5L4.90723 10.5V12.5ZM20 11.5V12.5L22 12.5V11.5L20 11.5Z" fill="#121314" mask="url(#path-1-inside-1_26_50)"/>
</g>
<defs>
<clipPath id="clip0_26_50">
<rect width="24" height="24" fill="white" transform="matrix(-1 0 0 -1 24 24)"/>
</clipPath>
</defs>
</svg>
