<svg width="14" height="18" viewBox="0 0 14 18" fill="none" xmlns="http://www.w3.org/2000/svg">
<g id="L">
<g id="Vector">
<mask id="path-1-inside-1_16_74" fill="white">
<path d="M10.3329 3.95117C10.3329 2.14005 8.81111 0.666664 6.99999 0.666664C5.18888 0.666664 3.66666 2.14005 3.66666 3.95117V4H0.333328V17.3333H13.6667V4H10.3329V3.95117ZM4.49999 3.95117C4.49999 2.59944 5.64827 1.5 6.99999 1.5C8.35172 1.5 9.49957 2.59944 9.49957 3.95117V4H4.49999V3.95117ZM12.8333 4.83333V16.5H1.16666V4.83333H3.66666V6.5H4.49999V4.83333H9.49957V6.5H10.3329V4.83333H12.8333Z"/>
</mask>
<path d="M10.3329 3.95117C10.3329 2.14005 8.81111 0.666664 6.99999 0.666664C5.18888 0.666664 3.66666 2.14005 3.66666 3.95117V4H0.333328V17.3333H13.6667V4H10.3329V3.95117ZM4.49999 3.95117C4.49999 2.59944 5.64827 1.5 6.99999 1.5C8.35172 1.5 9.49957 2.59944 9.49957 3.95117V4H4.49999V3.95117ZM12.8333 4.83333V16.5H1.16666V4.83333H3.66666V6.5H4.49999V4.83333H9.49957V6.5H10.3329V4.83333H12.8333Z" fill="#AAAAAA"/>
<path d="M3.66666 4V5H4.66666V4H3.66666ZM0.333328 4V3H-0.666672V4H0.333328ZM0.333328 17.3333H-0.666672V18.3333H0.333328V17.3333ZM13.6667 17.3333V18.3333H14.6667V17.3333H13.6667ZM13.6667 4H14.6667V3H13.6667V4ZM10.3329 4H9.33291V5H10.3329V4ZM9.49957 4V5H10.4996V4H9.49957ZM4.49999 4H3.49999V5H4.49999V4ZM12.8333 4.83333H13.8333V3.83333H12.8333V4.83333ZM12.8333 16.5V17.5H13.8333V16.5H12.8333ZM1.16666 16.5H0.166662V17.5H1.16666V16.5ZM1.16666 4.83333V3.83333H0.166662V4.83333H1.16666ZM3.66666 4.83333H4.66666V3.83333H3.66666V4.83333ZM3.66666 6.5H2.66666V7.5H3.66666V6.5ZM4.49999 6.5V7.5H5.49999V6.5H4.49999ZM4.49999 4.83333V3.83333H3.49999V4.83333H4.49999ZM9.49957 4.83333H10.4996V3.83333H9.49957V4.83333ZM9.49957 6.5H8.49957V7.5H9.49957V6.5ZM10.3329 6.5V7.5H11.3329V6.5H10.3329ZM10.3329 4.83333V3.83333H9.33291V4.83333H10.3329ZM11.3329 3.95117C11.3329 1.56887 9.34431 -0.333336 6.99999 -0.333336V1.66666C8.27791 1.66666 9.33291 2.71123 9.33291 3.95117H11.3329ZM6.99999 -0.333336C4.65584 -0.333336 2.66666 1.56871 2.66666 3.95117H4.66666C4.66666 2.71139 5.72191 1.66666 6.99999 1.66666V-0.333336ZM2.66666 3.95117V4H4.66666V3.95117H2.66666ZM3.66666 3H0.333328V5H3.66666V3ZM-0.666672 4V17.3333H1.33333V4H-0.666672ZM0.333328 18.3333H13.6667V16.3333H0.333328V18.3333ZM14.6667 17.3333V4H12.6667V17.3333H14.6667ZM13.6667 3H10.3329V5H13.6667V3ZM11.3329 4V3.95117H9.33291V4H11.3329ZM5.49999 3.95117C5.49999 3.17713 6.1748 2.5 6.99999 2.5V0.499997C5.12174 0.499997 3.49999 2.02176 3.49999 3.95117H5.49999ZM6.99999 2.5C7.82497 2.5 8.49957 3.17692 8.49957 3.95117H10.4996C10.4996 2.02197 8.87847 0.499997 6.99999 0.499997V2.5ZM8.49957 3.95117V4H10.4996V3.95117H8.49957ZM9.49957 3H4.49999V5H9.49957V3ZM5.49999 4V3.95117H3.49999V4H5.49999ZM11.8333 4.83333V16.5H13.8333V4.83333H11.8333ZM12.8333 15.5H1.16666V17.5H12.8333V15.5ZM2.16666 16.5V4.83333H0.166662V16.5H2.16666ZM1.16666 5.83333H3.66666V3.83333H1.16666V5.83333ZM2.66666 4.83333V6.5H4.66666V4.83333H2.66666ZM3.66666 7.5H4.49999V5.5H3.66666V7.5ZM5.49999 6.5V4.83333H3.49999V6.5H5.49999ZM4.49999 5.83333H9.49957V3.83333H4.49999V5.83333ZM8.49957 4.83333V6.5H10.4996V4.83333H8.49957ZM9.49957 7.5H10.3329V5.5H9.49957V7.5ZM11.3329 6.5V4.83333H9.33291V6.5H11.3329ZM10.3329 5.83333H12.8333V3.83333H10.3329V5.83333Z" fill="#AAAAAA" mask="url(#path-1-inside-1_16_74)"/>
</g>
</g>
</svg>
