<svg width="16" height="16" viewBox="0 0 16 16" fill="none" xmlns="http://www.w3.org/2000/svg">
<g id="L">
<g id="Vector">
<mask id="path-1-inside-1_16_105" fill="white">
<path d="M10.0833 15.5H5.91667V13.4313L5.63265 13.3133L4.17025 14.7765L1.22347 11.8298L2.68669 10.3673L2.56868 10.0833H0.5V5.91667H2.56868L2.68669 5.63265L1.22347 4.17025L4.17025 1.22347L5.63265 2.68669L5.91667 2.56868V0.5H10.0833V2.56868L10.3673 2.68669L11.8298 1.22347L14.7765 4.17025L13.3133 5.63265L13.4313 5.91667H15.5V10.0833H13.4313L13.3133 10.3673L14.7765 11.8298L11.8298 14.7765L10.3673 13.3133L10.0833 13.4313V15.5ZM6.75 14.6667H9.25V12.8747L10.5627 12.3302L11.8298 13.5981L13.5981 11.8298L12.3302 10.5627L12.8747 9.25H14.6667V6.75H12.8747L12.3302 5.43734L13.5981 4.17025L11.8298 2.40186L10.5627 3.66976L9.25 3.12533V1.33333H6.75V3.12533L5.43734 3.66976L4.17025 2.40186L2.40186 4.17025L3.66976 5.43734L3.12533 6.75H1.33333V9.25H3.12533L3.66976 10.5627L2.40186 11.8298L4.17025 13.5981L5.43734 12.3302L6.75 12.8747V14.6667ZM8 11.3333C6.16162 11.3333 4.66667 9.83838 4.66667 8C4.66667 6.16162 6.16162 4.66667 8 4.66667C9.83838 4.66667 11.3333 6.16162 11.3333 8C11.3333 9.83838 9.83838 11.3333 8 11.3333ZM8 5.5C6.62142 5.5 5.5 6.62142 5.5 8C5.5 9.37858 6.62142 10.5 8 10.5C9.37858 10.5 10.5 9.37858 10.5 8C10.5 6.62142 9.37858 5.5 8 5.5Z"/>
</mask>
<path d="M10.0833 15.5H5.91667V13.4313L5.63265 13.3133L4.17025 14.7765L1.22347 11.8298L2.68669 10.3673L2.56868 10.0833H0.5V5.91667H2.56868L2.68669 5.63265L1.22347 4.17025L4.17025 1.22347L5.63265 2.68669L5.91667 2.56868V0.5H10.0833V2.56868L10.3673 2.68669L11.8298 1.22347L14.7765 4.17025L13.3133 5.63265L13.4313 5.91667H15.5V10.0833H13.4313L13.3133 10.3673L14.7765 11.8298L11.8298 14.7765L10.3673 13.3133L10.0833 13.4313V15.5ZM6.75 14.6667H9.25V12.8747L10.5627 12.3302L11.8298 13.5981L13.5981 11.8298L12.3302 10.5627L12.8747 9.25H14.6667V6.75H12.8747L12.3302 5.43734L13.5981 4.17025L11.8298 2.40186L10.5627 3.66976L9.25 3.12533V1.33333H6.75V3.12533L5.43734 3.66976L4.17025 2.40186L2.40186 4.17025L3.66976 5.43734L3.12533 6.75H1.33333V9.25H3.12533L3.66976 10.5627L2.40186 11.8298L4.17025 13.5981L5.43734 12.3302L6.75 12.8747V14.6667ZM8 11.3333C6.16162 11.3333 4.66667 9.83838 4.66667 8C4.66667 6.16162 6.16162 4.66667 8 4.66667C9.83838 4.66667 11.3333 6.16162 11.3333 8C11.3333 9.83838 9.83838 11.3333 8 11.3333ZM8 5.5C6.62142 5.5 5.5 6.62142 5.5 8C5.5 9.37858 6.62142 10.5 8 10.5C9.37858 10.5 10.5 9.37858 10.5 8C10.5 6.62142 9.37858 5.5 8 5.5Z" fill="#AAAAAA"/>
<path d="M10.0833 15.5V16.5H11.0833V15.5H10.0833ZM5.91667 15.5H4.91667V16.5H5.91667V15.5ZM5.91667 13.4313H6.91667V12.7639L6.30034 12.5078L5.91667 13.4313ZM5.63265 13.3133L6.01633 12.3898L5.39838 12.1331L4.92535 12.6064L5.63265 13.3133ZM4.17025 14.7765L3.46314 15.4836L4.17044 16.1909L4.87755 15.4834L4.17025 14.7765ZM1.22347 11.8298L0.51656 11.1224L-0.19094 11.8296L0.516363 12.5369L1.22347 11.8298ZM2.68669 10.3673L3.3936 11.0747L3.86689 10.6016L3.61015 9.98367L2.68669 10.3673ZM2.56868 10.0833L3.49215 9.69966L3.23609 9.08333H2.56868V10.0833ZM0.5 10.0833H-0.5V11.0833H0.5V10.0833ZM0.5 5.91667V4.91667H-0.5V5.91667H0.5ZM2.56868 5.91667V6.91667H3.23609L3.49215 6.30034L2.56868 5.91667ZM2.68669 5.63265L3.61015 6.01633L3.86689 5.39838L3.3936 4.92535L2.68669 5.63265ZM1.22347 4.17025L0.516363 3.46314L-0.19094 4.17044L0.51656 4.87755L1.22347 4.17025ZM4.17025 1.22347L4.87755 0.51656L4.17044 -0.19094L3.46314 0.516363L4.17025 1.22347ZM5.63265 2.68669L4.92535 3.3936L5.39838 3.86689L6.01633 3.61015L5.63265 2.68669ZM5.91667 2.56868L6.30034 3.49215L6.91667 3.23609V2.56868H5.91667ZM5.91667 0.5V-0.5H4.91667V0.5H5.91667ZM10.0833 0.5H11.0833V-0.5H10.0833V0.5ZM10.0833 2.56868H9.08333V3.23609L9.69966 3.49215L10.0833 2.56868ZM10.3673 2.68669L9.98367 3.61015L10.6016 3.86689L11.0747 3.3936L10.3673 2.68669ZM11.8298 1.22347L12.5369 0.516363L11.8296 -0.19094L11.1224 0.51656L11.8298 1.22347ZM14.7765 4.17025L15.4834 4.87755L16.1909 4.17044L15.4836 3.46314L14.7765 4.17025ZM13.3133 5.63265L12.6064 4.92535L12.1331 5.39838L12.3898 6.01633L13.3133 5.63265ZM13.4313 5.91667L12.5078 6.30034L12.7639 6.91667H13.4313V5.91667ZM15.5 5.91667H16.5V4.91667H15.5V5.91667ZM15.5 10.0833V11.0833H16.5V10.0833H15.5ZM13.4313 10.0833V9.08333H12.7639L12.5078 9.69966L13.4313 10.0833ZM13.3133 10.3673L12.3898 9.98367L12.1331 10.6016L12.6064 11.0747L13.3133 10.3673ZM14.7765 11.8298L15.4836 12.5369L16.1909 11.8296L15.4834 11.1224L14.7765 11.8298ZM11.8298 14.7765L11.1224 15.4834L11.8296 16.1909L12.5369 15.4836L11.8298 14.7765ZM10.3673 13.3133L11.0747 12.6064L10.6016 12.1331L9.98367 12.3898L10.3673 13.3133ZM10.0833 13.4313L9.69966 12.5078L9.08333 12.7639V13.4313H10.0833ZM6.75 14.6667H5.75V15.6667H6.75V14.6667ZM9.25 14.6667V15.6667H10.25V14.6667H9.25ZM9.25 12.8747L8.86689 11.951L8.25 12.2068V12.8747H9.25ZM10.5627 12.3302L11.27 11.6234L10.7973 11.1503L10.1796 11.4065L10.5627 12.3302ZM11.8298 13.5981L11.1224 14.305L11.8295 15.0126L12.5369 14.3053L11.8298 13.5981ZM13.5981 11.8298L14.3053 12.5369L15.0126 11.8295L14.305 11.1224L13.5981 11.8298ZM12.3302 10.5627L11.4065 10.1796L11.1503 10.7973L11.6234 11.27L12.3302 10.5627ZM12.8747 9.25V8.25H12.2068L11.951 8.86689L12.8747 9.25ZM14.6667 9.25V10.25H15.6667V9.25H14.6667ZM14.6667 6.75H15.6667V5.75H14.6667V6.75ZM12.8747 6.75L11.951 7.13311L12.2068 7.75H12.8747V6.75ZM12.3302 5.43734L11.6234 4.73L11.1503 5.20273L11.4065 5.82045L12.3302 5.43734ZM13.5981 4.17025L14.305 4.87758L15.0126 4.17047L14.3053 3.46314L13.5981 4.17025ZM11.8298 2.40186L12.5369 1.69475L11.8295 0.987415L11.1224 1.69498L11.8298 2.40186ZM10.5627 3.66976L10.1796 4.59346L10.7973 4.84966L11.27 4.37664L10.5627 3.66976ZM9.25 3.12533H8.25V3.79317L8.86689 4.04903L9.25 3.12533ZM9.25 1.33333H10.25V0.333333H9.25V1.33333ZM6.75 1.33333V0.333333H5.75V1.33333H6.75ZM6.75 3.12533L7.13311 4.04903L7.75 3.79317V3.12533H6.75ZM5.43734 3.66976L4.73 4.37664L5.20273 4.84966L5.82045 4.59346L5.43734 3.66976ZM4.17025 2.40186L4.87758 1.69498L4.17047 0.987415L3.46314 1.69475L4.17025 2.40186ZM2.40186 4.17025L1.69475 3.46314L0.987415 4.17047L1.69498 4.87758L2.40186 4.17025ZM3.66976 5.43734L4.59346 5.82045L4.84966 5.20273L4.37664 4.73L3.66976 5.43734ZM3.12533 6.75V7.75H3.79317L4.04903 7.13311L3.12533 6.75ZM1.33333 6.75V5.75H0.333333V6.75H1.33333ZM1.33333 9.25H0.333333V10.25H1.33333V9.25ZM3.12533 9.25L4.04903 8.86689L3.79317 8.25H3.12533V9.25ZM3.66976 10.5627L4.37664 11.27L4.84966 10.7973L4.59346 10.1796L3.66976 10.5627ZM2.40186 11.8298L1.69498 11.1224L0.987415 11.8295L1.69475 12.5369L2.40186 11.8298ZM4.17025 13.5981L3.46314 14.3053L4.17047 15.0126L4.87758 14.305L4.17025 13.5981ZM5.43734 12.3302L5.82045 11.4065L5.20273 11.1503L4.73 11.6234L5.43734 12.3302ZM6.75 12.8747H7.75V12.2068L7.13311 11.951L6.75 12.8747ZM10.0833 14.5H5.91667V16.5H10.0833V14.5ZM6.91667 15.5V13.4313H4.91667V15.5H6.91667ZM6.30034 12.5078L6.01633 12.3898L5.24897 14.2368L5.53299 14.3548L6.30034 12.5078ZM4.92535 12.6064L3.46294 14.0696L4.87755 15.4834L6.33995 14.0202L4.92535 12.6064ZM4.87735 14.0694L1.93058 11.1226L0.516363 12.5369L3.46314 15.4836L4.87735 14.0694ZM1.93038 12.5371L3.3936 11.0747L1.97978 9.66005L0.51656 11.1224L1.93038 12.5371ZM3.61015 9.98367L3.49215 9.69966L1.64522 10.467L1.76322 10.751L3.61015 9.98367ZM2.56868 9.08333H0.5V11.0833H2.56868V9.08333ZM1.5 10.0833V5.91667H-0.5V10.0833H1.5ZM0.5 6.91667H2.56868V4.91667H0.5V6.91667ZM3.49215 6.30034L3.61015 6.01633L1.76322 5.24897L1.64522 5.53299L3.49215 6.30034ZM3.3936 4.92535L1.93038 3.46294L0.51656 4.87755L1.97978 6.33995L3.3936 4.92535ZM1.93058 4.87735L4.87735 1.93058L3.46314 0.516363L0.516363 3.46314L1.93058 4.87735ZM3.46294 1.93038L4.92535 3.3936L6.33995 1.97978L4.87755 0.51656L3.46294 1.93038ZM6.01633 3.61015L6.30034 3.49215L5.53299 1.64522L5.24897 1.76322L6.01633 3.61015ZM6.91667 2.56868V0.5H4.91667V2.56868H6.91667ZM5.91667 1.5H10.0833V-0.5H5.91667V1.5ZM9.08333 0.5V2.56868H11.0833V0.5H9.08333ZM9.69966 3.49215L9.98367 3.61015L10.751 1.76322L10.467 1.64522L9.69966 3.49215ZM11.0747 3.3936L12.5371 1.93038L11.1224 0.51656L9.66005 1.97978L11.0747 3.3936ZM11.1226 1.93058L14.0694 4.87735L15.4836 3.46314L12.5369 0.516363L11.1226 1.93058ZM14.0696 3.46294L12.6064 4.92535L14.0202 6.33995L15.4834 4.87755L14.0696 3.46294ZM12.3898 6.01633L12.5078 6.30034L14.3548 5.53299L14.2368 5.24897L12.3898 6.01633ZM13.4313 6.91667H15.5V4.91667H13.4313V6.91667ZM14.5 5.91667V10.0833H16.5V5.91667H14.5ZM15.5 9.08333H13.4313V11.0833H15.5V9.08333ZM12.5078 9.69966L12.3898 9.98367L14.2368 10.751L14.3548 10.467L12.5078 9.69966ZM12.6064 11.0747L14.0696 12.5371L15.4834 11.1224L14.0202 9.66005L12.6064 11.0747ZM14.0694 11.1226L11.1226 14.0694L12.5369 15.4836L15.4836 12.5369L14.0694 11.1226ZM12.5371 14.0696L11.0747 12.6064L9.66005 14.0202L11.1224 15.4834L12.5371 14.0696ZM9.98367 12.3898L9.69966 12.5078L10.467 14.3548L10.751 14.2368L9.98367 12.3898ZM9.08333 13.4313V15.5H11.0833V13.4313H9.08333ZM6.75 15.6667H9.25V13.6667H6.75V15.6667ZM10.25 14.6667V12.8747H8.25V14.6667H10.25ZM9.63311 13.7984L10.9458 13.2539L10.1796 11.4065L8.86689 11.951L9.63311 13.7984ZM9.85533 13.0371L11.1224 14.305L12.5371 12.8913L11.27 11.6234L9.85533 13.0371ZM12.5369 14.3053L14.3053 12.5369L12.891 11.1226L11.1226 12.891L12.5369 14.3053ZM14.305 11.1224L13.0371 9.85533L11.6234 11.27L12.8913 12.5371L14.305 11.1224ZM13.2539 10.9458L13.7984 9.63311L11.951 8.86689L11.4065 10.1796L13.2539 10.9458ZM12.8747 10.25H14.6667V8.25H12.8747V10.25ZM15.6667 9.25V6.75H13.6667V9.25H15.6667ZM14.6667 5.75H12.8747V7.75H14.6667V5.75ZM13.7984 6.36689L13.2539 5.05423L11.4065 5.82045L11.951 7.13311L13.7984 6.36689ZM13.0371 6.14467L14.305 4.87758L12.8913 3.46291L11.6234 4.73L13.0371 6.14467ZM14.3053 3.46314L12.5369 1.69475L11.1226 3.10896L12.891 4.87735L14.3053 3.46314ZM11.1224 1.69498L9.85533 2.96288L11.27 4.37664L12.5371 3.10874L11.1224 1.69498ZM10.9458 2.74606L9.63311 2.20162L8.86689 4.04903L10.1796 4.59346L10.9458 2.74606ZM10.25 3.12533V1.33333H8.25V3.12533H10.25ZM9.25 0.333333H6.75V2.33333H9.25V0.333333ZM5.75 1.33333V3.12533H7.75V1.33333H5.75ZM6.36689 2.20162L5.05423 2.74606L5.82045 4.59346L7.13311 4.04903L6.36689 2.20162ZM6.14467 2.96288L4.87758 1.69498L3.46291 3.10874L4.73 4.37664L6.14467 2.96288ZM3.46314 1.69475L1.69475 3.46314L3.10896 4.87735L4.87735 3.10896L3.46314 1.69475ZM1.69498 4.87758L2.96288 6.14467L4.37664 4.73L3.10874 3.46291L1.69498 4.87758ZM2.74606 5.05423L2.20162 6.36689L4.04903 7.13311L4.59346 5.82045L2.74606 5.05423ZM3.12533 5.75H1.33333V7.75H3.12533V5.75ZM0.333333 6.75V9.25H2.33333V6.75H0.333333ZM1.33333 10.25H3.12533V8.25H1.33333V10.25ZM2.20162 9.63311L2.74606 10.9458L4.59346 10.1796L4.04903 8.86689L2.20162 9.63311ZM2.96288 9.85533L1.69498 11.1224L3.10874 12.5371L4.37664 11.27L2.96288 9.85533ZM1.69475 12.5369L3.46314 14.3053L4.87735 12.891L3.10896 11.1226L1.69475 12.5369ZM4.87758 14.305L6.14467 13.0371L4.73 11.6234L3.46291 12.8913L4.87758 14.305ZM5.05423 13.2539L6.36689 13.7984L7.13311 11.951L5.82045 11.4065L5.05423 13.2539ZM5.75 12.8747V14.6667H7.75V12.8747H5.75ZM8 10.3333C6.71391 10.3333 5.66667 9.28609 5.66667 8H3.66667C3.66667 10.3907 5.60934 12.3333 8 12.3333V10.3333ZM5.66667 8C5.66667 6.71391 6.71391 5.66667 8 5.66667V3.66667C5.60934 3.66667 3.66667 5.60934 3.66667 8H5.66667ZM8 5.66667C9.28609 5.66667 10.3333 6.71391 10.3333 8H12.3333C12.3333 5.60934 10.3907 3.66667 8 3.66667V5.66667ZM10.3333 8C10.3333 9.28609 9.28609 10.3333 8 10.3333V12.3333C10.3907 12.3333 12.3333 10.3907 12.3333 8H10.3333ZM8 4.5C6.06913 4.5 4.5 6.06913 4.5 8H6.5C6.5 7.1737 7.1737 6.5 8 6.5V4.5ZM4.5 8C4.5 9.93087 6.06913 11.5 8 11.5V9.5C7.1737 9.5 6.5 8.8263 6.5 8H4.5ZM8 11.5C9.93087 11.5 11.5 9.93087 11.5 8H9.5C9.5 8.8263 8.8263 9.5 8 9.5V11.5ZM11.5 8C11.5 6.06913 9.93087 4.5 8 4.5V6.5C8.8263 6.5 9.5 7.1737 9.5 8H11.5Z" fill="#AAAAAA" mask="url(#path-1-inside-1_16_105)"/>
</g>
</g>
</svg>
