<svg width="16" height="16" viewBox="0 0 16 16" fill="none" xmlns="http://www.w3.org/2000/svg">
<g id="L">
<g id="Vector">
<mask id="path-1-inside-1_16_81" fill="white">
<path d="M13.8333 0.5H2.16667V14.6667H0.5V15.5H15.5V14.6667H13.8333V0.5ZM13 6.33333H10.5V1.33333H13V6.33333ZM6.33333 6.33333V1.33333H9.66667V6.33333H6.33333ZM3 1.33333H5.5V6.33333H3V1.33333ZM3 7.16667H13V8.83333H3V7.16667ZM3 9.66667H13V14.6667H9.66667V11.3333H6.33333V14.6667H3V9.66667ZM7.16667 14.6667V12.1667H8.83333V14.6667H7.16667Z"/>
</mask>
<path d="M13.8333 0.5H2.16667V14.6667H0.5V15.5H15.5V14.6667H13.8333V0.5ZM13 6.33333H10.5V1.33333H13V6.33333ZM6.33333 6.33333V1.33333H9.66667V6.33333H6.33333ZM3 1.33333H5.5V6.33333H3V1.33333ZM3 7.16667H13V8.83333H3V7.16667ZM3 9.66667H13V14.6667H9.66667V11.3333H6.33333V14.6667H3V9.66667ZM7.16667 14.6667V12.1667H8.83333V14.6667H7.16667Z" fill="#AAAAAA"/>
<path d="M13.8333 0.5H14.8333V-0.5H13.8333V0.5ZM2.16667 0.5V-0.5H1.16667V0.5H2.16667ZM2.16667 14.6667V15.6667H3.16667V14.6667H2.16667ZM0.5 14.6667V13.6667H-0.5V14.6667H0.5ZM0.5 15.5H-0.5V16.5H0.5V15.5ZM15.5 15.5V16.5H16.5V15.5H15.5ZM15.5 14.6667H16.5V13.6667H15.5V14.6667ZM13.8333 14.6667H12.8333V15.6667H13.8333V14.6667ZM13 6.33333V7.33333H14V6.33333H13ZM10.5 6.33333H9.5V7.33333H10.5V6.33333ZM10.5 1.33333V0.333333H9.5V1.33333H10.5ZM13 1.33333H14V0.333333H13V1.33333ZM6.33333 6.33333H5.33333V7.33333H6.33333V6.33333ZM6.33333 1.33333V0.333333H5.33333V1.33333H6.33333ZM9.66667 1.33333H10.6667V0.333333H9.66667V1.33333ZM9.66667 6.33333V7.33333H10.6667V6.33333H9.66667ZM3 1.33333V0.333333H2V1.33333H3ZM5.5 1.33333H6.5V0.333333H5.5V1.33333ZM5.5 6.33333V7.33333H6.5V6.33333H5.5ZM3 6.33333H2V7.33333H3V6.33333ZM3 7.16667V6.16667H2V7.16667H3ZM13 7.16667H14V6.16667H13V7.16667ZM13 8.83333V9.83333H14V8.83333H13ZM3 8.83333H2V9.83333H3V8.83333ZM3 9.66667V8.66667H2V9.66667H3ZM13 9.66667H14V8.66667H13V9.66667ZM13 14.6667V15.6667H14V14.6667H13ZM9.66667 14.6667H8.66667V15.6667H9.66667V14.6667ZM9.66667 11.3333H10.6667V10.3333H9.66667V11.3333ZM6.33333 11.3333V10.3333H5.33333V11.3333H6.33333ZM6.33333 14.6667V15.6667H7.33333V14.6667H6.33333ZM3 14.6667H2V15.6667H3V14.6667ZM7.16667 14.6667H6.16667V15.6667H7.16667V14.6667ZM7.16667 12.1667V11.1667H6.16667V12.1667H7.16667ZM8.83333 12.1667H9.83333V11.1667H8.83333V12.1667ZM8.83333 14.6667V15.6667H9.83333V14.6667H8.83333ZM13.8333 -0.5H2.16667V1.5H13.8333V-0.5ZM1.16667 0.5V14.6667H3.16667V0.5H1.16667ZM2.16667 13.6667H0.5V15.6667H2.16667V13.6667ZM-0.5 14.6667V15.5H1.5V14.6667H-0.5ZM0.5 16.5H15.5V14.5H0.5V16.5ZM16.5 15.5V14.6667H14.5V15.5H16.5ZM15.5 13.6667H13.8333V15.6667H15.5V13.6667ZM14.8333 14.6667V0.5H12.8333V14.6667H14.8333ZM13 5.33333H10.5V7.33333H13V5.33333ZM11.5 6.33333V1.33333H9.5V6.33333H11.5ZM10.5 2.33333H13V0.333333H10.5V2.33333ZM12 1.33333V6.33333H14V1.33333H12ZM7.33333 6.33333V1.33333H5.33333V6.33333H7.33333ZM6.33333 2.33333H9.66667V0.333333H6.33333V2.33333ZM8.66667 1.33333V6.33333H10.6667V1.33333H8.66667ZM9.66667 5.33333H6.33333V7.33333H9.66667V5.33333ZM3 2.33333H5.5V0.333333H3V2.33333ZM4.5 1.33333V6.33333H6.5V1.33333H4.5ZM5.5 5.33333H3V7.33333H5.5V5.33333ZM4 6.33333V1.33333H2V6.33333H4ZM3 8.16667H13V6.16667H3V8.16667ZM12 7.16667V8.83333H14V7.16667H12ZM13 7.83333H3V9.83333H13V7.83333ZM4 8.83333V7.16667H2V8.83333H4ZM3 10.6667H13V8.66667H3V10.6667ZM12 9.66667V14.6667H14V9.66667H12ZM13 13.6667H9.66667V15.6667H13V13.6667ZM10.6667 14.6667V11.3333H8.66667V14.6667H10.6667ZM9.66667 10.3333H6.33333V12.3333H9.66667V10.3333ZM5.33333 11.3333V14.6667H7.33333V11.3333H5.33333ZM6.33333 13.6667H3V15.6667H6.33333V13.6667ZM4 14.6667V9.66667H2V14.6667H4ZM8.16667 14.6667V12.1667H6.16667V14.6667H8.16667ZM7.16667 13.1667H8.83333V11.1667H7.16667V13.1667ZM7.83333 12.1667V14.6667H9.83333V12.1667H7.83333ZM8.83333 13.6667H7.16667V15.6667H8.83333V13.6667Z" fill="#AAAAAA" mask="url(#path-1-inside-1_16_81)"/>
</g>
</g>
</svg>
