<svg width="20" height="20" viewBox="0 0 20 20" fill="none" xmlns="http://www.w3.org/2000/svg">
<g id="Group">
<path id="Vector" d="M15.4917 15.8333V5.95833V5.125V5C15.4917 4.08333 14.7417 3.33333 13.825 3.33333H6.05C5.13333 3.33333 4.38333 4.08333 4.38333 5V5.125V5.95833V15.8333H3.68333V16.6667H4.38333H5.21667H6.18333V15.8333H5.21667V5.95833H7.625V6.6V6.66667C7.08333 6.84167 6.68333 7.35 6.68333 7.95833V13H9.4V9.05V8.21667V7.95833C9.4 7.35 9 6.85 8.45833 6.675V6.6V5.95833H11.4167V6.6V6.66667C10.875 6.84167 10.475 7.35 10.475 7.95833V13H13.1917V9.05V8.21667V7.95833C13.1917 7.35 12.7917 6.85 12.25 6.675V6.6V5.95833H14.6583V15.8333H13.8083V16.6667H14.6583H15.4917H16.3083V15.8333H15.4917ZM8.575 12.1667H7.51667V9.20833V9.05V8.21667V7.95833C7.51667 7.675 7.74167 7.44167 8.025 7.43333H8.05833C8.34167 7.44167 8.56667 7.675 8.56667 7.95833V8.225V9.05833V9.21667V12.1667H8.575ZM12.3583 12.1667H11.3083V9.20833V9.05V8.21667V7.95833C11.3083 7.675 11.5333 7.44167 11.8167 7.43333H11.85C12.1333 7.44167 12.3583 7.675 12.3583 7.95833V8.225V9.05833V9.21667V12.1667ZM5.21667 5.125V5C5.21667 4.54167 5.59167 4.16667 6.05 4.16667H13.825C14.2833 4.16667 14.6583 4.54167 14.6583 5V5.125" fill="#AAAAAA"/>
</g>
</svg>
